<svg width="18" height="18" viewBox="0 0 18 18" fill="none" xmlns="http://www.w3.org/2000/svg">
<g filter="url(#filter0_i_1384_5)">
<path d="M16 0L18 2V16L16 18H2L0 16V2L2 0H16ZM2 15L3 16H15L16 15V3L15 2H3L2 3V15Z" fill="#7CCF00"/>
</g>
<g filter="url(#filter1_i_1384_5)">
<path d="M7.91406 6L7.5 6.41406V7.58594L7.91406 8H10.9141L12.5 9.58594V12.4141L10.9141 14H7.08594L5.5 12.4141V11H7.5V11.5859L7.91406 12H10.0859L10.5 11.5859V10.4141L10.0859 10H7.08594L5.5 8.41406V5.58594L7.08594 4L10.9141 4.00406L12.5 5.59V7H10.5V6.41L10.09 6H7.91406Z" fill="#7CCF00"/>
</g>
<defs>
<filter id="filter0_i_1384_5" x="0" y="0" width="18" height="18" filterUnits="userSpaceOnUse" color-interpolation-filters="sRGB">
<feFlood flood-opacity="0" result="BackgroundImageFix"/>
<feBlend mode="normal" in="SourceGraphic" in2="BackgroundImageFix" result="shape"/>
<feColorMatrix in="SourceAlpha" type="matrix" values="0 0 0 0 0 0 0 0 0 0 0 0 0 0 0 0 0 0 127 0" result="hardAlpha"/>
<feOffset/>
<feGaussianBlur stdDeviation="0.5"/>
<feComposite in2="hardAlpha" operator="arithmetic" k2="-1" k3="1"/>
<feColorMatrix type="matrix" values="0 0 0 0 0.237226 0 0 0 0 0.388072 0 0 0 0 0 0 0 0 1 0"/>
<feBlend mode="normal" in2="shape" result="effect1_innerShadow_1384_5"/>
</filter>
<filter id="filter1_i_1384_5" x="5.5" y="4" width="7" height="10" filterUnits="userSpaceOnUse" color-interpolation-filters="sRGB">
<feFlood flood-opacity="0" result="BackgroundImageFix"/>
<feBlend mode="normal" in="SourceGraphic" in2="BackgroundImageFix" result="shape"/>
<feColorMatrix in="SourceAlpha" type="matrix" values="0 0 0 0 0 0 0 0 0 0 0 0 0 0 0 0 0 0 127 0" result="hardAlpha"/>
<feOffset/>
<feGaussianBlur stdDeviation="0.5"/>
<feComposite in2="hardAlpha" operator="arithmetic" k2="-1" k3="1"/>
<feColorMatrix type="matrix" values="0 0 0 0 0.237226 0 0 0 0 0.388072 0 0 0 0 0 0 0 0 1 0"/>
<feBlend mode="normal" in2="shape" result="effect1_innerShadow_1384_5"/>
</filter>
</defs>
</svg>
